<svg width="200" height="200" viewBox="0 0 200 200" fill="none" xmlns="http://www.w3.org/2000/svg">
  <defs>
    <linearGradient id="tbz-green" x1="40" y1="30" x2="160" y2="170" gradientUnits="userSpaceOnUse">
      <stop stop-color="#0B5C2B" />
      <stop offset="1" stop-color="#0E7436" />
    </linearGradient>
    <radialGradient id="tbz-orange" cx="0" cy="0" r="1" gradientUnits="userSpaceOnUse" gradientTransform="translate(116 162) rotate(90) scale(24)">
      <stop stop-color="#FFA94D" />
      <stop offset="1" stop-color="#F0790F" />
    </radialGradient>
  </defs>
  <path
    d="M96 18c-4.7 0-9 2.5-11.4 6.5L47.4 94.7c-1.6 2.7-4.4 4.3-7.5 4.3H25c-6.6 0-12 5.4-12 12v0.1c0 6.6 5.4 12 12 12h14.9c3.1 0 5.9 1.6 7.5 4.3l37.2 66.1c2.4 4.1 6.7 6.5 11.3 6.5s8.9-2.4 11.3-6.5l37.2-66.1c1.6-2.7 4.4-4.3 7.5-4.3H167c6.6 0 12-5.4 12-12v-0.1c0-6.6-5.4-12-12-12h-14.9c-3.1 0-5.9-1.6-7.5-4.3L107.4 24.5C105 20.4 100.7 18 96 18Z"
    fill="url(#tbz-green)"
  />
  <circle cx="96" cy="110" r="24" fill="#F5F7F4" />
  <path
    d="M116 136c-8.8 0-14 7.8-14 15.6 0 4.4 1.7 8.4 4.6 11.3 2.9 2.9 6.8 4.6 11.3 4.6 8.8 0 16-7.2 16-16 0-8.4-6.6-15.5-15.1-15.9-0.3 0-0.5-0.1-0.8-0.1Z"
    fill="url(#tbz-orange)"
  />
</svg>
